<svg width="108" height="24" viewBox="0 0 108 24" fill="none" xmlns="http://www.w3.org/2000/svg">
<path fill-rule="evenodd" clip-rule="evenodd" d="M23.7819 11.8414C23.8147 16.1043 21.5631 20.0587 17.8802 22.2058C14.1974 24.3529 9.64698 24.3643 5.95345 22.2356C2.25993 20.1069 -0.0114824 16.1639 4.3658e-05 11.9009C-0.000313318 10.1246 0.392556 8.37025 1.15046 6.76374L4.3658e-05 4.76043H9.52071C14.1216 4.76043 17.8513 8.49016 17.8513 13.091V15.4712H14.8562C13.3397 15.4741 11.8498 15.8704 10.5323 16.6216L5.91079 19.2993C7.60144 20.6791 9.71864 21.4292 11.9009 21.4216C15.8831 21.4247 19.4465 18.9492 20.8332 15.2162C22.2199 11.4833 21.1368 7.28166 18.1183 4.68426C15.0998 2.08687 10.7836 1.64248 7.29922 3.57035H3.41161C6.78426 0.125746 11.904 -0.939434 16.3707 0.874184C20.8373 2.6878 23.7653 7.02066 23.7819 11.8414ZM11.3058 9.52054C11.3039 10.177 10.7722 10.7087 10.1158 10.7106C9.80016 10.7144 9.49764 10.5847 9.2827 10.3536L7.25956 8.33046H10.1356C10.7851 8.34128 11.3059 8.87094 11.3058 9.52054ZM9.83807 14.2809L4.22485 17.5139C1.99347 14.4759 1.76782 10.4065 3.64964 7.14037H9.52071C11.0995 7.13827 12.6142 7.7645 13.7306 8.88088C14.847 9.99726 15.4732 11.512 15.4711 13.0908H14.3009C12.7351 13.0925 11.1968 13.5027 9.83807 14.2809Z" fill="#00CC99"/>
<path d="M43.8546 15.4712V7.14062H45.4811V15.4712H43.8546Z" fill="black"/>
<path fill-rule="evenodd" clip-rule="evenodd" d="M61.7653 15.4709L57.8381 8.17173L58.3934 7.16016H56.6282L52.1852 15.4709H53.9703L54.6248 14.2411H55.6166C57.6397 14.2411 59.7422 15.0345 60.0199 15.3717L60.0596 15.4709H61.7653ZM58.9488 13.4874C58.4133 13.2097 57.3224 12.7734 55.6166 12.7734H55.3984L57.005 9.7585L58.9488 13.4874Z" fill="black"/>
<path d="M85.7058 15.4709V7.16016H87.3323V15.4709H85.7058Z" fill="black"/>
<path d="M90.8827 15.4709V7.16016H92.5885V13.8445H96.9521V15.4709H90.8827Z" fill="black"/>
<path fill-rule="evenodd" clip-rule="evenodd" d="M103.279 7.14062H101.514L102.069 8.1522L98.1421 15.4514H99.8479L99.8875 15.3522C100.145 15.015 102.268 14.2216 104.291 14.2216H105.283L105.937 15.4514H107.722L103.279 7.14062ZM102.883 9.75881L104.489 12.7737H104.271C103.12 12.7479 101.978 12.9925 100.939 13.4877L102.883 9.75881Z" fill="black"/>
<path d="M78.1488 15.7092C75.8678 15.7092 74.2017 14.658 74.2017 12.2778V7.14062H75.8281V12.2778C75.8281 13.6662 76.7603 14.0828 78.1488 14.0828C79.5372 14.0828 80.4694 13.6662 80.4694 12.2778V7.14062H82.0959V12.2778C82.0959 14.658 80.4298 15.7092 78.1488 15.7092Z" fill="black"/>
<path d="M71.0877 14.5589C70.1368 15.3343 68.9425 15.7488 67.7158 15.7292C65.2364 15.7292 62.8761 14.1226 62.8761 11.3854C62.8761 8.62836 65.2761 7.08125 67.7158 7.08125C68.8933 7.0569 70.0476 7.41152 71.0083 8.09282L69.9174 9.34241C69.2606 8.92188 68.4957 8.70137 67.7158 8.7077C66.129 8.7077 64.6017 9.58043 64.6017 11.4052C64.6017 13.2498 66.1687 14.0829 67.7356 14.0829C68.3358 14.0841 68.9276 13.9412 69.4612 13.6664V12.3573H68.6282L67.9339 10.83H71.0877V14.5589Z" fill="black"/>
<path d="M40.3041 8.44972V15.4712H38.519V10.5125L35.6231 14.3406L32.7273 10.5125V15.4712H30.9421V8.44972L30.1289 7.14062H32.1322L35.643 11.7423L39.1537 7.14062H41.157L40.3041 8.44972Z" fill="black"/>
<path d="M59.643 4.76074L59.0083 5.95082H57.2628L57.8975 4.76074H59.643Z" fill="#00CC99"/>
</svg>
